<svg version="1.1" id="Layer_1" xmlns="http://www.w3.org/2000/svg" xmlns:xlink="http://www.w3.org/1999/xlink" x="0px" y="0px"
	 width="100%" viewBox="0 0 113 123" enable-background="new 0 0 113 123" xml:space="preserve">
<path fill="#FEFFFF" opacity="1.000000" stroke="none" 
	d="
M79.000000,124.000000 
	C52.666668,124.000000 26.833334,124.000000 1.000000,124.000000 
	C1.000000,83.000000 1.000000,42.000000 1.000000,1.000000 
	C38.666668,1.000000 76.333336,1.000000 114.000000,1.000000 
	C114.000000,42.000000 114.000000,83.000000 114.000000,124.000000 
	C102.500000,124.000000 91.000000,124.000000 79.000000,124.000000 
M21.405836,53.710060 
	C15.933356,73.750938 28.720877,90.525833 42.119038,95.955391 
	C49.308590,100.006920 56.987465,97.156769 64.439400,97.480362 
	C64.608177,97.487686 64.813591,96.651474 65.689613,95.889351 
	C68.831787,94.222816 71.973953,92.556282 75.801491,90.873230 
	C78.473000,88.663521 81.144501,86.453812 83.797005,84.259811 
	C83.542419,83.001923 83.259804,81.605530 83.694969,80.009590 
	C84.683502,78.819077 86.345840,77.731499 86.546120,76.420570 
	C87.509171,70.116760 89.170563,63.647030 88.569939,57.430809 
	C87.088921,42.102753 73.603691,30.276104 57.084644,28.558542 
	C43.024933,27.096687 27.801594,36.698662 22.332735,50.400085 
	C22.171282,51.303204 22.009827,52.206326 21.405836,53.710060 
z"/>
<path fill="#0450E0" opacity="1.000000" stroke="none" 
	d="
M75.116127,90.889755 
	C71.973953,92.556282 68.831787,94.222816 65.010651,95.921120 
	C56.999146,92.137474 49.537956,92.311592 41.988201,95.232437 
	C28.720877,90.525833 15.933356,73.750938 21.792416,53.720497 
	C26.571487,57.254631 31.654837,58.070400 38.213432,57.989765 
	C34.967674,56.067913 32.814095,54.644230 30.528482,53.479675 
	C28.064547,52.224262 25.476992,51.211468 22.943367,50.092827 
	C27.801594,36.698662 43.024933,27.096687 57.084644,28.558542 
	C73.603691,30.276104 87.088921,42.102753 88.569939,57.430809 
	C89.170563,63.647030 87.509171,70.116760 86.546120,76.420570 
	C86.345840,77.731499 84.683502,78.819077 83.016159,80.223038 
	C81.546318,81.314247 80.631317,82.110291 79.988335,83.085663 
	C78.300972,85.645302 76.732170,88.283096 75.116127,90.889755 
M63.072567,61.402054 
	C61.149784,59.960571 59.227001,58.519089 57.146118,56.959084 
	C55.189568,57.718994 52.547768,58.343849 50.356514,59.697845 
	C47.627934,61.383869 45.233601,63.627499 42.773518,65.722610 
	C41.871799,66.490555 40.415359,67.660355 40.548222,68.410019 
	C41.167961,71.906937 42.254936,75.321037 43.204380,78.875328 
	C45.237621,78.273712 46.913342,78.024429 48.356140,77.306824 
	C53.643345,74.677132 58.198856,75.641258 62.246571,79.761063 
	C64.376465,81.928894 66.508240,84.162292 69.808334,81.693909 
	C73.454689,78.966507 75.778511,72.985329 73.992599,70.067848 
	C71.365723,65.776550 68.394745,61.695885 65.399902,57.273819 
	C64.732758,58.613468 64.154480,59.774666 63.072567,61.402054 
M56.697784,47.952206 
	C57.534531,48.933704 58.178425,50.354450 59.241222,50.821072 
	C63.977238,52.900387 68.833008,54.706944 73.627113,56.604786 
	C74.369026,50.488575 73.292824,48.568958 67.549179,46.803638 
	C63.248158,45.481709 58.850098,44.475506 53.286209,43.010345 
	C54.665867,45.110363 55.422798,46.262512 56.697784,47.952206 
M35.518414,47.843079 
	C32.639515,49.921757 33.472263,51.812897 35.774841,53.857910 
	C36.899071,53.262691 37.929310,52.778698 38.896912,52.191502 
	C40.639030,51.134285 42.343628,50.015224 44.063900,48.922001 
	C41.774593,48.315220 39.489735,47.690319 37.189926,47.126362 
	C36.925468,47.061516 36.577682,47.336472 35.518414,47.843079 
z"/>
<path fill="#D0D5DE" opacity="1.000000" stroke="none" 
	d="
M42.053619,95.593918 
	C49.537956,92.311592 56.999146,92.137474 64.666809,96.080818 
	C64.813591,96.651474 64.608177,97.487686 64.439400,97.480362 
	C56.987465,97.156769 49.308590,100.006920 42.053619,95.593918 
z"/>
<path fill="#01953F" opacity="1.000000" stroke="none" 
	d="
M22.638050,50.246460 
	C25.476992,51.211468 28.064547,52.224262 30.528482,53.479675 
	C32.814095,54.644230 34.967674,56.067913 38.213432,57.989765 
	C31.654837,58.070400 26.571487,57.254631 22.013685,53.420189 
	C22.009827,52.206326 22.171282,51.303204 22.638050,50.246460 
z"/>
<path fill="#049641" opacity="1.000000" stroke="none" 
	d="
M75.458809,90.881493 
	C76.732170,88.283096 78.300972,85.645302 79.988335,83.085663 
	C80.631317,82.110291 81.546318,81.314247 82.657265,80.322807 
	C83.259804,81.605530 83.542419,83.001923 83.797005,84.259811 
	C81.144501,86.453812 78.473000,88.663521 75.458809,90.881493 
z"/>
<path fill="#019C2E" opacity="1.000000" stroke="none" 
	d="
M63.324387,61.168961 
	C64.154480,59.774666 64.732758,58.613468 65.399902,57.273819 
	C68.394745,61.695885 71.365723,65.776550 73.992599,70.067848 
	C75.778511,72.985329 73.454689,78.966507 69.808334,81.693909 
	C66.508240,84.162292 64.376465,81.928894 62.246571,79.761063 
	C58.198856,75.641258 53.643345,74.677132 48.356140,77.306824 
	C46.913342,78.024429 45.237621,78.273712 43.204380,78.875328 
	C42.254936,75.321037 41.167961,71.906937 40.548222,68.410019 
	C40.415359,67.660355 41.871799,66.490555 42.773518,65.722610 
	C45.233601,63.627499 47.627934,61.383869 50.356514,59.697845 
	C52.547768,58.343849 55.189568,57.718994 57.146118,56.959084 
	C59.227001,58.519089 61.149784,59.960571 63.324387,61.168961 
z"/>
<path fill="#009738" opacity="1.000000" stroke="none" 
	d="
M56.438759,47.683434 
	C55.422798,46.262512 54.665867,45.110363 53.286209,43.010345 
	C58.850098,44.475506 63.248158,45.481709 67.549179,46.803638 
	C73.292824,48.568958 74.369026,50.488575 73.627113,56.604786 
	C68.833008,54.706944 63.977238,52.900387 59.241222,50.821072 
	C58.178425,50.354450 57.534531,48.933704 56.438759,47.683434 
z"/>
<path fill="#00943F" opacity="1.000000" stroke="none" 
	d="
M35.893471,47.648479 
	C36.577682,47.336472 36.925468,47.061516 37.189926,47.126362 
	C39.489735,47.690319 41.774593,48.315220 44.063900,48.922001 
	C42.343628,50.015224 40.639030,51.134285 38.896912,52.191502 
	C37.929310,52.778698 36.899071,53.262691 35.774841,53.857910 
	C33.472263,51.812897 32.639515,49.921757 35.893471,47.648479 
z"/>
</svg>